<svg width="32" height="32" viewBox="0 0 32 32" xmlns="http://www.w3.org/2000/svg">
  <defs>
    <linearGradient id="grad1" x1="0%" y1="0%" x2="100%" y2="100%">
      <stop offset="0%" style="stop-color:#f5e6e3;stop-opacity:1" />
      <stop offset="100%" style="stop-color:#8b5a6b;stop-opacity:1" />
    </linearGradient>
  </defs>

  <!-- ギフトボックス -->
  <rect x="6" y="12" width="20" height="16" rx="2" fill="url(#grad1)"/>

  <!-- リボン横 -->
  <rect x="6" y="18" width="20" height="4" fill="#8b5a6b"/>

  <!-- リボン縦 -->
  <rect x="14" y="12" width="4" height="16" fill="#8b5a6b"/>

  <!-- リボン結び目 -->
  <ellipse cx="16" cy="12" rx="4" ry="2" fill="#a67284"/>

  <!-- ハート -->
  <g transform="translate(16,8)">
    <path d="M0,-2 C-2,-4 -5,-4 -5,-1 C-5,1 0,4 0,4 C0,4 5,1 5,-1 C5,-4 2,-4 0,-2 Z"
          fill="#ff6b9d" opacity="0.8"/>
  </g>

  <!-- キラキラ -->
  <circle cx="10" cy="15" r="1" fill="#ffffff" opacity="0.7"/>
  <circle cx="22" cy="17" r="0.8" fill="#ffffff" opacity="0.7"/>
  <circle cx="20" cy="25" r="1.2" fill="#ffffff" opacity="0.7"/>
</svg>